<?xml version="1.0" encoding="UTF-8"?>
<svg width="401px" height="655px" viewBox="0 0 401 655" version="1.1" xmlns="http://www.w3.org/2000/svg" xmlns:xlink="http://www.w3.org/1999/xlink">
    <!-- Generator: Sketch 43.2 (39069) - http://www.bohemiancoding.com/sketch -->
    <title>Chemex</title>
    <desc>Created with Sketch.</desc>
    <defs></defs>
    <g id="Page-1" stroke="none" stroke-width="1" fill="none" fill-rule="evenodd">
        <g id="Chemex" transform="translate(-610.000000, -357.000000)" stroke-width="4">
            <g transform="translate(612.000000, 359.000000)">
                <path d="M311.021498,651 C349.748002,651 414.86217,588.299145 391.896286,512.630005 L294.804472,300.10243 C283.330402,274.986447 284.501724,234.841001 297.421313,210.433894 L391.896286,31.9560211 C395.970544,14.7089482 388.286067,0.725174114 374.731866,0.725174114 L189.801312,0.725174114 L22.0377768,0.72517395 C8.48183919,0.725174041 0.795953502,14.7089482 4.87021232,31.9560211 L108.233343,216.492093 C121.727009,240.582579 122.557812,280.084672 110.085155,304.730073 L4.87021232,512.630005 C-19.0291274,595.851374 55.7488864,651 94.4745951,651 L182.214711,651 L311.021498,651 Z" id="Caraffe" stroke="#000000" stroke-linecap="round" stroke-linejoin="round"></path>
                <path d="M93.8073715,364.123962 C71.7119036,364.050882 61.3500345,347.755031 70.6693907,327.713469 L91.203806,283.553577 C98.4237439,268.026879 98.1128,243.00326 90.5094123,227.662001 L71.5623686,189.432791 C61.7539167,169.642402 71.7067767,153.348525 93.794291,153.039376 L203.310509,151.506525 L312.513489,153.399365 C334.6018,153.782226 344.524079,170.123423 334.677138,189.895198 L315.851134,227.696131 C308.220058,243.018648 307.861133,268.028724 315.057452,283.574983 L335.711288,328.193611 C344.989248,348.236854 334.606028,364.485113 312.518128,364.485113 L203,364.485113 L93.8073715,364.123962 Z" id="Handle" stroke="#00FF4F" fill="#00FF4F"></path>
            </g>
        </g>
    </g>
</svg>