<?xml version="1.0" encoding="UTF-8" standalone="no"?>
<svg
   xmlns:dc="http://purl.org/dc/elements/1.1/"
   xmlns:cc="http://creativecommons.org/ns#"
   xmlns:rdf="http://www.w3.org/1999/02/22-rdf-syntax-ns#"
   xmlns:svg="http://www.w3.org/2000/svg"
   xmlns="http://www.w3.org/2000/svg"
   xmlns:sodipodi="http://sodipodi.sourceforge.net/DTD/sodipodi-0.dtd"
   xmlns:inkscape="http://www.inkscape.org/namespaces/inkscape"
   width="520"
   height="300"
   viewBox="0 0 520 299.99999"
   version="1.1"
   id="svg12"
   sodipodi:docname="pattern2.svg"
   inkscape:version="0.92.2 2405546, 2018-03-11">
  <metadata
     id="metadata16">
    <rdf:RDF>
      <cc:Work
         rdf:about="">
        <dc:format>image/svg+xml</dc:format>
        <dc:type
           rdf:resource="http://purl.org/dc/dcmitype/StillImage" />
        <dc:title>Chemex Icon</dc:title>
      </cc:Work>
    </rdf:RDF>
  </metadata>
  <sodipodi:namedview
     pagecolor="#ffffff"
     bordercolor="#666666"
     borderopacity="1"
     objecttolerance="10"
     gridtolerance="10"
     guidetolerance="10"
     inkscape:pageopacity="0"
     inkscape:pageshadow="2"
     inkscape:window-width="2560"
     inkscape:window-height="1400"
     id="namedview14"
     showgrid="false"
     inkscape:zoom="2.8780488"
     inkscape:cx="296.46987"
     inkscape:cy="181.16673"
     inkscape:window-x="0"
     inkscape:window-y="40"
     inkscape:window-maximized="0"
     inkscape:current-layer="svg12"
     fit-margin-top="0"
     fit-margin-left="0"
     fit-margin-right="0"
     fit-margin-bottom="0" />
  <!-- Generator: Sketch 43.2 (39069) - http://www.bohemiancoding.com/sketch -->
  <title
     id="title2">Chemex Icon</title>
  <desc
     id="desc4">Created with Sketch.</desc>
  <defs
     id="defs6" />
  <g
     id="Icons"
     style="fill:none;fill-rule:evenodd;stroke:#eeeeee;stroke-width:1;stroke-opacity:0.94117647"
     transform="rotate(-45,297.693,-1.3163564)">
    <g
       transform="translate(-43,-18)"
       id="Chemex-Icon"
       style="stroke:#eeeeee;stroke-width:4;stroke-opacity:0.94117647">
      <path
         d="M 49.188306,29.074663 C 46.875168,24.062865 49.481169,20 54.998075,20 h 30.00385 c 5.521784,0 8.121079,4.066824 5.809769,9.074663 L 80,52.5 92.213002,76.926003 C 97.894354,88.288708 92.200557,97.5 79.491959,97.5 H 60.508041 C 47.801051,97.5 42.107505,88.28499 47.786999,76.926003 L 60,52.5 Z"
         id="path8"
         inkscape:connector-curvature="0"
         style="stroke:#eeeeee;stroke-opacity:0.94117647" />
    </g>
  </g>
  <path
     id="path4546"
     d="m 446.53772,233.41386 c 15.55636,15.55635 32.52692,-1.41421 32.52692,-1.41421 l -31.1127,-31.11271 c 0,0 -16.97057,16.97057 -1.41422,32.52692 z m 32.67824,-1.26289 2.80085,2.80085 a 3.828,3.828 0 0 1 -7.1e-4,5.41007 3.828,3.828 0 0 1 -5.40866,7.1e-4 l -2.95287,-2.95288"
     inkscape:connector-curvature="0"
     style="fill:none;fill-rule:evenodd;stroke:#eeeeee;stroke-width:4;stroke-linejoin:round;stroke-opacity:0.94117647" />
  <ellipse
     style="fill:none;fill-opacity:1;stroke:#eeeeee;stroke-width:4;stroke-linecap:butt;stroke-linejoin:miter;stroke-miterlimit:4;stroke-dasharray:none;stroke-opacity:0.94117647"
     id="path4557"
     cx="374.80051"
     cy="-47.89212"
     rx="12.514879"
     ry="17.434523"
     transform="rotate(43.500028)" />
  <path
     style="fill:none;fill-rule:evenodd;stroke:#eeeeee;stroke-width:4;stroke-linecap:round;stroke-linejoin:miter;stroke-miterlimit:4;stroke-dasharray:none;stroke-opacity:0.94117647"
     d="m 317.02574,211.0375 c 0,0 -6.56906,-5.04737 -12.25375,11.91152 -3.36377,10.03497 -12.3673,12.53179 -12.3673,12.53179"
     id="path4559"
     inkscape:connector-curvature="0"
     sodipodi:nodetypes="csc" />
  <g
     id="Icons-3"
     style="fill:none;fill-rule:evenodd;stroke:#eeeeee;stroke-width:1;stroke-opacity:0.94117647"
     transform="rotate(-45,250.94557,-351.86203)">
    <g
       transform="translate(-43,-18)"
       id="Chemex-Icon-6"
       style="stroke:#eeeeee;stroke-width:4;stroke-opacity:0.94117647">
      <path
         d="M 49.188306,29.074663 C 46.875168,24.062865 49.481169,20 54.998075,20 h 30.00385 c 5.521784,0 8.121079,4.066824 5.809769,9.074663 L 80,52.5 92.213002,76.926003 C 97.894354,88.288708 92.200557,97.5 79.491959,97.5 H 60.508041 C 47.801051,97.5 42.107505,88.28499 47.786999,76.926003 L 60,52.5 Z"
         id="path8-7"
         inkscape:connector-curvature="0"
         style="stroke:#eeeeee;stroke-opacity:0.94117647" />
    </g>
  </g>
  <ellipse
     style="fill:none;fill-opacity:1;stroke:#eeeeee;stroke-width:4;stroke-linecap:butt;stroke-linejoin:miter;stroke-miterlimit:4;stroke-dasharray:none;stroke-opacity:0.94117647"
     id="path4557-5"
     cx="91.822289"
     cy="28.432476"
     rx="12.514879"
     ry="17.434523"
     transform="rotate(43.500028)" />
  <path
     style="fill:none;fill-rule:evenodd;stroke:#eeeeee;stroke-width:4;stroke-linecap:round;stroke-linejoin:miter;stroke-miterlimit:4;stroke-dasharray:none;stroke-opacity:0.94117647"
     d="m 59.22222,71.61187 c 0,0 -6.56906,-5.04737 -12.25375,11.91152 -3.36377,10.03497 -12.3673,12.53179 -12.3673,12.53179"
     id="path4559-3"
     inkscape:connector-curvature="0"
     sodipodi:nodetypes="csc" />
  <path
     id="path4546-5"
     d="m 183.19028,91.32085 c 15.55635,15.55635 32.52691,-1.41421 32.52691,-1.41421 L 184.6045,58.79393 c 0,0 -16.97057,16.97057 -1.41422,32.52692 z m 32.67823,-1.26289 2.80085,2.80085 a 3.828,3.828 0 0 1 -7.1e-4,5.41007 3.828,3.828 0 0 1 -5.40866,7.1e-4 l -2.95287,-2.95288"
     inkscape:connector-curvature="0"
     style="fill:none;fill-rule:evenodd;stroke:#eeeeee;stroke-width:4;stroke-linejoin:round;stroke-opacity:0.94117647" />
</svg>
