<?xml version="1.0" encoding="UTF-8" standalone="no"?>
<svg
   xmlns:dc="http://purl.org/dc/elements/1.1/"
   xmlns:cc="http://creativecommons.org/ns#"
   xmlns:rdf="http://www.w3.org/1999/02/22-rdf-syntax-ns#"
   xmlns:svg="http://www.w3.org/2000/svg"
   xmlns="http://www.w3.org/2000/svg"
   xmlns:sodipodi="http://sodipodi.sourceforge.net/DTD/sodipodi-0.dtd"
   xmlns:inkscape="http://www.inkscape.org/namespaces/inkscape"
   width="218.93242"
   height="190.30232"
   viewBox="0 0 218.93242 190.30232"
   version="1.1"
   id="svg12"
   sodipodi:docname="pattern.svg"
   inkscape:version="0.92.2 2405546, 2018-03-11">
  <metadata
     id="metadata16">
    <rdf:RDF>
      <cc:Work
         rdf:about="">
        <dc:format>image/svg+xml</dc:format>
        <dc:type
           rdf:resource="http://purl.org/dc/dcmitype/StillImage" />
        <dc:title>Chemex Icon</dc:title>
      </cc:Work>
    </rdf:RDF>
  </metadata>
  <sodipodi:namedview
     pagecolor="#ffffff"
     bordercolor="#666666"
     borderopacity="1"
     objecttolerance="10"
     gridtolerance="10"
     guidetolerance="10"
     inkscape:pageopacity="0"
     inkscape:pageshadow="2"
     inkscape:window-width="1270"
     inkscape:window-height="1390"
     id="namedview14"
     showgrid="false"
     inkscape:zoom="2.8780488"
     inkscape:cx="110.60887"
     inkscape:cy="83.878598"
     inkscape:window-x="0"
     inkscape:window-y="40"
     inkscape:window-maximized="0"
     inkscape:current-layer="svg12"
     fit-margin-top="0"
     fit-margin-left="0"
     fit-margin-right="0"
     fit-margin-bottom="0" />
  <!-- Generator: Sketch 43.2 (39069) - http://www.bohemiancoding.com/sketch -->
  <title
     id="title2">Chemex Icon</title>
  <desc
     id="desc4">Created with Sketch.</desc>
  <defs
     id="defs6" />
  <g
     id="Icons"
     style="fill:none;fill-rule:evenodd;stroke:#000000;stroke-width:1;stroke-opacity:1"
     transform="translate(137.03787,61.949153)">
    <g
       transform="translate(-43,-18)"
       id="Chemex-Icon"
       style="stroke:#000000;stroke-width:4;stroke-opacity:1">
      <path
         d="M 49.188306,29.074663 C 46.875168,24.062865 49.481169,20 54.998075,20 h 30.00385 c 5.521784,0 8.121079,4.066824 5.809769,9.074663 L 80,52.5 92.213002,76.926003 C 97.894354,88.288708 92.200557,97.5 79.491959,97.5 H 60.508041 C 47.801051,97.5 42.107505,88.28499 47.786999,76.926003 L 60,52.5 Z"
         id="path8"
         inkscape:connector-curvature="0"
         style="stroke:#000000;stroke-opacity:1" />
    </g>
  </g>
  <path
     id="path4546"
     d="m 86.826013,53.449153 c 22.000007,0 22.000007,-24 22.000007,-24 H 64.826013 c 0,0 0,24 22,24 z m 22.214007,-24 h 3.961 a 3.828,3.828 0 0 1 3.825,3.826 3.828,3.828 0 0 1 -3.824,3.825 h -4.176"
     inkscape:connector-curvature="0"
     style="fill:none;fill-rule:evenodd;stroke:#000000;stroke-width:4;stroke-linejoin:round;stroke-opacity:1" />
  <ellipse
     style="fill:none;fill-opacity:1;stroke:#000000;stroke-width:4;stroke-linecap:butt;stroke-linejoin:miter;stroke-miterlimit:4;stroke-dasharray:none;stroke-opacity:1"
     id="path4557"
     cx="135.42548"
     cy="48.996868"
     rx="12.514879"
     ry="17.434523"
     transform="rotate(43.500028)" />
  <path
     style="fill:none;fill-rule:evenodd;stroke:#000000;stroke-width:4;stroke-linecap:round;stroke-linejoin:miter;stroke-miterlimit:4;stroke-dasharray:none;stroke-opacity:1"
     d="m 76.695228,116.54321 c 0,0 -6.569051,-5.04737 -12.253744,11.91152 -3.363769,10.03497 -12.367305,12.53179 -12.367305,12.53179"
     id="path4559"
     inkscape:connector-curvature="0"
     sodipodi:nodetypes="csc" />
</svg>
